<svg width="53" height="13" viewBox="0 0 53 13" fill="none" xmlns="http://www.w3.org/2000/svg">
<path d="M10.412 13H8.126L2.654 6.484V13H0.71V0.147999H2.654V6.376L8.018 0.147999H10.16L4.85 6.376L10.412 13ZM13.8102 3.298V7.24H18.5982V3.298H20.5062V13H18.5982V8.77H13.8102V13H11.9022V3.298H13.8102ZM25.3042 8.59C25.3042 8.782 25.2922 9.04 25.2682 9.364C25.2562 9.688 25.2382 10.012 25.2142 10.336C25.2022 10.648 25.1842 10.882 25.1602 11.038L30.1462 3.298H32.4682V13H30.6682V7.834C30.6682 7.606 30.6742 7.324 30.6862 6.988C30.6982 6.652 30.7102 6.328 30.7222 6.016C30.7462 5.692 30.7642 5.446 30.7762 5.278L25.8262 13H23.4862V3.298H25.3042V8.59ZM41.6305 3.298V4.828H37.3825V13H35.4745V3.298H41.6305ZM45.3257 8.59C45.3257 8.782 45.3137 9.04 45.2897 9.364C45.2777 9.688 45.2597 10.012 45.2357 10.336C45.2237 10.648 45.2057 10.882 45.1817 11.038L50.1677 3.298H52.4897V13H50.6897V7.834C50.6897 7.606 50.6957 7.324 50.7077 6.988C50.7197 6.652 50.7317 6.328 50.7437 6.016C50.7677 5.692 50.7857 5.446 50.7977 5.278L45.8477 13H43.5077V3.298H45.3257V8.59Z" fill="#787D85"/>
</svg>
